<svg width="18" height="19" viewBox="0 0 18 19" fill="none" xmlns="http://www.w3.org/2000/svg">
<g clip-path="url(#clip0_38:22)">
<path d="M8.99993 13.8425C6.86243 13.8425 5.08493 12.3125 4.72493 10.2875H0.179932C0.584932 14.81 4.38743 18.3425 8.99993 18.3425C13.6124 18.3425 17.4149 14.7875 17.8199 10.2875H13.2749C12.9149 12.3125 11.1374 13.8425 8.99993 13.8425Z" fill="#9DCFAB"/>
<path d="M8.99993 5.1575C11.1374 5.1575 12.9149 6.6875 13.2749 8.7125H17.8199C17.4149 4.19 13.6124 0.657497 8.99993 0.657497C4.38743 0.657497 0.584932 4.19 0.179932 8.7125H4.72493C5.08493 6.6875 6.86243 5.1575 8.99993 5.1575Z" fill="#9DCFAB"/>
<path d="M8.99993 7.4075C8.12243 7.4075 7.35743 7.9475 7.04243 8.7125C6.95243 8.96 6.88493 9.23 6.88493 9.5C6.88493 9.77 6.92993 10.04 7.04243 10.2875C7.35743 11.0525 8.09993 11.5925 8.99993 11.5925C9.89993 11.5925 10.6424 11.0525 10.9574 10.2875C11.0474 10.04 11.1149 9.77 11.1149 9.5C11.1149 9.23 11.0699 8.96 10.9574 8.7125C10.6424 7.9475 9.87743 7.4075 8.99993 7.4075Z" fill="#9DCFAB"/>
</g>
<defs>
<clipPath id="clip0_38:22">
<rect width="18" height="18" fill="white" transform="translate(0 0.5)"/>
</clipPath>
</defs>
</svg>
