<?xml version="1.0" standalone="no"?>
<!DOCTYPE svg PUBLIC "-//W3C//DTD SVG 20010904//EN"
 "http://www.w3.org/TR/2001/REC-SVG-20010904/DTD/svg10.dtd">
<svg version="1.0" xmlns="http://www.w3.org/2000/svg"
 width="608.000000pt" height="608.000000pt" viewBox="0 0 608.000000 608.000000"
 preserveAspectRatio="xMidYMid meet">
<metadata>
Created by potrace 1.14, written by Peter Selinger 2001-2017
</metadata>
<g transform="translate(0.000000,608.000000) scale(0.100000,-0.100000)"
fill="#000000" stroke="none">
<path d="M2845 5864 c-540 -53 -958 -195 -1362 -463 -238 -157 -479 -375 -648
-586 -316 -395 -530 -886 -600 -1377 -8 -57 -15 -113 -15 -125 l0 -23 725 0
725 0 6 28 c58 263 177 491 357 679 202 211 437 342 730 405 146 31 408 31
554 0 293 -63 528 -194 730 -405 180 -188 299 -416 357 -679 l6 -28 726 0 726
0 -7 68 c-20 192 -84 460 -160 669 -55 150 -194 424 -287 563 -357 537 -871
933 -1472 1134 -279 93 -533 135 -841 140 -115 2 -228 2 -250 0z"/>
<path d="M2905 3695 c-139 -31 -246 -89 -343 -187 -109 -108 -168 -230 -192
-393 -32 -219 71 -463 253 -601 210 -159 480 -187 712 -74 205 100 331 270
370 500 44 253 -71 509 -297 659 -141 95 -340 133 -503 96z"/>
<path d="M220 2768 c1 -100 63 -405 117 -573 203 -632 597 -1154 1146 -1516
357 -236 740 -380 1192 -445 149 -22 530 -25 685 -6 430 53 847 202 1202 428
223 142 493 383 666 592 341 415 573 961 627 1475 l7 67 -726 0 -726 0 -6 -27
c-58 -264 -177 -492 -357 -680 -202 -211 -437 -342 -730 -405 -146 -31 -408
-31 -554 0 -343 74 -633 258 -839 531 -108 144 -206 362 -248 554 l-6 27 -725
0 -725 0 0 -22z"/>
</g>
</svg>
